<?xml version="1.0" encoding="utf-8"?>
<!-- Generator: Adobe Illustrator 16.0.0, SVG Export Plug-In . SVG Version: 6.00 Build 0)  -->
<!DOCTYPE svg PUBLIC "-//W3C//DTD SVG 1.1//EN" "http://www.w3.org/Graphics/SVG/1.1/DTD/svg11.dtd">
<svg version="1.1" id="Capa_1" xmlns="http://www.w3.org/2000/svg" xmlns:xlink="http://www.w3.org/1999/xlink" x="0px" y="0px"
	 width="490.041px" height="71.16px" viewBox="0 0 490.041 71.16" enable-background="new 0 0 490.041 71.16" xml:space="preserve">
<g>
	<path d="M57.023,18.212l-0.65,4.45h-16.95v10.1h15.35v4.45h-15.35v10.85h17.25l0.7,4.45h-22.85v-34.3H57.023z"/>
	<path d="M84.147,20.212c2.15,1.667,3.225,4.033,3.225,7.1v0.6h-4.9v-0.75c0-1.6-0.65-2.833-1.95-3.7c-1.3-0.867-3.018-1.3-5.15-1.3
		c-2.367,0-4.208,0.392-5.525,1.175c-1.317,0.783-1.975,1.908-1.975,3.375c0,1.1,0.375,2,1.125,2.7c0.75,0.7,1.683,1.25,2.8,1.65
		c1.116,0.4,2.658,0.85,4.625,1.35c2.533,0.667,4.583,1.317,6.15,1.95c1.566,0.633,2.908,1.583,4.025,2.85
		c1.117,1.267,1.675,2.95,1.675,5.05c0,3.733-1.143,6.458-3.425,8.175c-2.284,1.717-5.492,2.575-9.625,2.575
		c-4.133,0-7.342-0.875-9.625-2.625c-2.284-1.75-3.425-4.292-3.425-7.625c0-0.366,0.016-0.7,0.05-1h4.9
		c-0.033,0.3-0.05,0.65-0.05,1.05c0,1.934,0.725,3.375,2.175,4.325c1.45,0.95,3.458,1.425,6.025,1.425
		c2.5,0,4.475-0.458,5.925-1.375c1.45-0.916,2.175-2.175,2.175-3.775c0-1.266-0.392-2.292-1.175-3.075
		c-0.784-0.783-1.767-1.392-2.95-1.825c-1.184-0.433-2.792-0.917-4.825-1.45c-2.5-0.666-4.5-1.3-6-1.9s-2.784-1.525-3.85-2.775
		c-1.067-1.25-1.6-2.892-1.6-4.925c0-3.3,1.117-5.75,3.35-7.35c2.233-1.6,5.216-2.4,8.95-2.4
		C79.039,17.712,81.997,18.546,84.147,20.212z"/>
	<path d="M115.547,19.487c1.55,0.85,2.775,2.025,3.675,3.525c0.9,1.5,1.35,3.184,1.35,5.05v0.3c0,1.833-0.442,3.5-1.325,5
		c-0.884,1.5-2.109,2.684-3.675,3.55c-1.567,0.867-3.317,1.3-5.25,1.3h-9.9v14.3h-4.9v-34.3h14.8
		C112.255,18.212,113.998,18.637,115.547,19.487z M100.422,22.662v11.1h9.45c1.566,0,2.925-0.542,4.075-1.625
		c1.15-1.083,1.725-2.392,1.725-3.925c0-1.566-0.575-2.883-1.725-3.95c-1.15-1.066-2.508-1.6-4.075-1.6H100.422z"/>
	<path d="M144.123,45.062h-16.4l-2.85,7.45h-4.75l13.4-34.3h5.4l13.4,34.3h-5.3L144.123,45.062z M136.123,24.112h-0.3l-6.35,16.5
		h12.95L136.123,24.112z"/>
	<path d="M176.772,19.362c1.966,1.1,3.491,2.675,4.575,4.725c1.083,2.05,1.625,4.475,1.625,7.275h-4.9c0-2.9-0.717-5.158-2.15-6.775
		c-1.434-1.617-3.5-2.425-6.2-2.425c-3,0-5.284,0.925-6.85,2.775c-1.567,1.85-2.35,4.575-2.35,8.175v4.5
		c0,3.567,0.767,6.284,2.3,8.15c1.533,1.867,3.8,2.8,6.8,2.8c2.8,0,4.941-0.8,6.425-2.4c1.483-1.6,2.225-3.833,2.225-6.7h4.7
		c0,2.7-0.542,5.075-1.625,7.125c-1.084,2.05-2.6,3.633-4.55,4.75c-1.95,1.117-4.192,1.675-6.725,1.675h-0.55
		c-2.867,0-5.342-0.608-7.425-1.825c-2.084-1.216-3.684-2.982-4.8-5.3c-1.117-2.316-1.675-5.075-1.675-8.275v-4.5
		c0-3.133,0.558-5.858,1.675-8.175c1.117-2.316,2.708-4.1,4.775-5.35c2.066-1.25,4.5-1.875,7.3-1.875h0.55
		C172.522,17.712,174.805,18.262,176.772,19.362z"/>
	<path d="M201.222,22.662h-4v25.4h4v4.45h-12.9v-4.45h4v-25.4h-4v-4.45h12.9V22.662z"/>
	<path d="M213.622,51.162c-2.1-1.233-3.742-3.008-4.925-5.325c-1.184-2.316-1.775-5.058-1.775-8.225v-4.5
		c0-3.167,0.583-5.908,1.75-8.225c1.167-2.316,2.8-4.091,4.9-5.325c2.1-1.232,4.516-1.85,7.25-1.85h0.5
		c2.732,0,5.158,0.617,7.275,1.85c2.116,1.234,3.766,3.018,4.95,5.35c1.183,2.333,1.775,5.067,1.775,8.2v4.5
		c0,3.133-0.584,5.867-1.75,8.2c-1.167,2.334-2.809,4.117-4.925,5.35c-2.117,1.234-4.525,1.85-7.225,1.85h-0.5
		C218.154,53.012,215.722,52.396,213.622,51.162z M227.972,45.787c1.633-1.85,2.45-4.575,2.45-8.175v-4.5
		c0-3.566-0.792-6.283-2.375-8.15c-1.583-1.867-3.892-2.8-6.925-2.8c-2.934,0-5.217,0.934-6.85,2.8
		c-1.633,1.867-2.45,4.583-2.45,8.15v4.5c0,3.567,0.791,6.284,2.375,8.15c1.583,1.867,3.891,2.8,6.925,2.8
		C224.054,48.562,226.338,47.637,227.972,45.787z"/>
	<path fill="#F27781" d="M263.396,19.287c2.083,1.05,3.725,2.634,4.925,4.75c1.2,2.117,1.8,4.708,1.8,7.775h-7.35
		c0-2.6-0.575-4.575-1.725-5.925c-1.15-1.35-2.809-2.025-4.975-2.025c-2.1,0-3.825,0.692-5.175,2.075
		c-1.35,1.384-2.025,3.342-2.025,5.875v7.1c0,2.534,0.683,4.492,2.05,5.875c1.367,1.384,3.1,2.075,5.2,2.075
		c2.366,0,4.116-0.642,5.25-1.925c1.133-1.283,1.7-3.258,1.7-5.925h7.05c0,2.934-0.592,5.458-1.775,7.575
		c-1.184,2.117-2.809,3.717-4.875,4.8c-2.067,1.083-4.4,1.625-7,1.625h-0.7c-2.867,0-5.434-0.583-7.7-1.75
		c-2.268-1.167-4.05-2.892-5.35-5.175c-1.3-2.283-1.95-5.042-1.95-8.275v-4.9c0-3.133,0.65-5.85,1.95-8.15
		c1.3-2.3,3.075-4.05,5.325-5.25s4.758-1.8,7.525-1.8h0.7C258.938,17.712,261.313,18.237,263.396,19.287z"/>
	<path fill="#F27781" d="M281.671,18.212v23.25c0,1.567,0.558,2.867,1.675,3.9c1.116,1.034,2.541,1.55,4.275,1.55
		c1.766,0,3.191-0.508,4.275-1.525c1.083-1.017,1.625-2.325,1.625-3.925v-23.25h7.7v23.4c0,2.267-0.534,4.267-1.6,6
		c-1.067,1.733-2.583,3.067-4.55,4c-1.967,0.933-4.233,1.4-6.8,1.4h-1.4c-2.567,0-4.825-0.467-6.775-1.4
		c-1.95-0.933-3.459-2.267-4.525-4c-1.067-1.733-1.6-3.733-1.6-6v-23.4H281.671z"/>
	<path fill="#F27781" d="M315.771,18.212v27.9h14.1l0.85,6.4h-22.7v-34.3H315.771z"/>
	<path fill="#F27781" d="M358.521,18.212v6.2h-9.7v28.1h-7.65v-28.1h-9.75v-6.2H358.521z"/>
	<path fill="#F27781" d="M369.82,18.212v23.25c0,1.567,0.558,2.867,1.675,3.9c1.116,1.034,2.541,1.55,4.275,1.55
		c1.766,0,3.191-0.508,4.275-1.525c1.083-1.017,1.625-2.325,1.625-3.925v-23.25h7.7v23.4c0,2.267-0.534,4.267-1.6,6
		c-1.067,1.733-2.583,3.067-4.55,4c-1.967,0.933-4.233,1.4-6.8,1.4h-1.4c-2.567,0-4.825-0.467-6.775-1.4
		c-1.95-0.933-3.459-2.267-4.525-4c-1.067-1.733-1.6-3.733-1.6-6v-23.4H369.82z"/>
	<path fill="#F27781" d="M419.769,20.362c2.201,1.434,3.301,3.65,3.301,6.65c0,2.034-0.592,3.833-1.776,5.4
		c-1.184,1.567-2.642,2.7-4.375,3.4v0.25c1.433,0.467,2.707,1.409,3.824,2.825c1.117,1.417,1.676,3.192,1.676,5.325
		c0,3.667,0.85,5.767,2.551,6.3v1.7c-1.102,0.433-2.535,0.65-4.301,0.65c-1.7,0-3.083-0.417-4.15-1.25
		c-1.067-0.833-1.6-2.233-1.6-4.2c0-2.4-0.384-4.35-1.15-5.85c-0.768-1.5-2.167-2.25-4.2-2.25h-5.8v13.2h-7.6v-34.3h15.5
		C414.869,18.212,417.569,18.929,419.769,20.362z M403.77,24.362v8.9h7.5c1.133,0,2.083-0.517,2.85-1.55
		c0.767-1.033,1.15-2.233,1.15-3.6c0-1.1-0.334-2-1-2.7c-0.667-0.7-1.584-1.05-2.75-1.05H403.77z"/>
	<path fill="#F27781" d="M449.42,45.762h-13.65l-2.4,6.75h-7.449l12.449-34.3h9.201l12.449,34.3h-8.1L449.42,45.762z M442.77,26.462
		h-0.25l-4.65,13.45h9.5L442.77,26.462z"/>
</g>
<g>
	<path d="M15.9,9.42v4.14h-5.28V56.1h5.28v4.14H3.72V9.42H15.9z"/>
</g>
<g>
	<path d="M486.201,60.24h-12.181V56.1h5.28V13.56h-5.28V9.42h12.181V60.24z"/>
</g>
</svg>
